GRF
version=1
nRows=6
nColumns=46
inDegrees=no
endheader
time	plate1_ground_force_vx	plate1_ground_force_vy	plate1_ground_force_vz	plate1_ground_force_px	plate1_ground_force_py	plate1_ground_force_pz	plate1_ground_torque_x	plate1_ground_torque_y	plate1_ground_torque_z	plate2_ground_force_vx	plate2_ground_force_vy	plate2_ground_force_vz	plate2_ground_force_px	plate2_ground_force_py	plate2_ground_force_pz	plate2_ground_torque_x	plate2_ground_torque_y	plate2_ground_torque_z	plate3_ground_force_vx	plate3_ground_force_vy	plate3_ground_force_vz	plate3_ground_force_px	plate3_ground_force_py	plate3_ground_force_pz	plate3_ground_torque_x	plate3_ground_torque_y	plate3_ground_torque_z	plate4_ground_force_vx	plate4_ground_force_vy	plate4_ground_force_vz	plate4_ground_force_px	plate4_ground_force_py	plate4_ground_force_pz	plate4_ground_torque_x	plate4_ground_torque_y	plate4_ground_torque_z	plate5_ground_force_vx	plate5_ground_force_vy	plate5_ground_force_vz	plate5_ground_force_px	plate5_ground_force_py	plate5_ground_force_pz	plate5_ground_torque_x	plate5_ground_torque_y	plate5_ground_torque_z
      0.26000000	   -107.94356780	    742.43706129	     -7.55298959	     -0.71704320	      0.00000000	      0.13045104	     -0.00000000	     -3.63271893	     -0.00000000	      0.00000000	      0.00000000	      0.00000000	      0.00000000	      0.00000000	      0.00000000	      0.00000000	      0.00000000	      0.00000000	      0.00000000	      0.00000000	      0.00000000	      0.00000000	      0.00000000	      0.00000000	      0.00000000	      0.00000000	      0.00000000	      0.00000000	      0.00000000	      0.00000000	      0.00000000	      0.00000000	      0.00000000	      0.00000000	      0.00000000	      0.00000000	      0.00000000	      0.00000000	      0.00000000	      0.00000000	      0.00000000	      0.00000000	      0.00000000	      0.00000000	      0.00000000
      0.27000000	   -107.59577918	    850.31420291	     -9.01606798	     -0.71439614	      0.00000000	      0.13368557	     -0.00000000	     -3.29271399	     -0.00000000	      0.00000000	      0.00000000	      0.00000000	      0.00000000	      0.00000000	      0.00000000	      0.00000000	      0.00000000	      0.00000000	      0.00000000	      0.00000000	      0.00000000	      0.00000000	      0.00000000	      0.00000000	      0.00000000	      0.00000000	      0.00000000	      0.00000000	      0.00000000	      0.00000000	      0.00000000	      0.00000000	      0.00000000	      0.00000000	      0.00000000	      0.00000000	      0.00000000	      0.00000000	      0.00000000	      0.00000000	      0.00000000	      0.00000000	      0.00000000	      0.00000000	      0.00000000
      0.28000000	   -100.67902830	    944.11801782	     -9.81138840	     -0.71160455	      0.00000000	      0.13610766	     -0.00000000	     -2.52588242	     -0.00000000	      0.00000000	      0.00000000	      0.00000000	      0.00000000	      0.00000000	      0.00000000	      0.00000000	      0.00000000	      0.00000000	      0.00000000	      0.00000000	      0.00000000	      0.00000000	      0.00000000	      0.00000000	      0.00000000	      0.00000000	      0.00000000	      0.00000000	      0.00000000	      0.00000000	      0.00000000	      0.00000000	      0.00000000	      0.00000000	      0.00000000	      0.00000000	      0.00000000	      0.00000000	      0.00000000	      0.00000000	      0.00000000	      0.00000000	      0.00000000	      0.00000000	      0.00000000
      0.29000000	    -87.08997930	   1021.00589082	    -10.03222341	     -0.70858953	      0.00000000	      0.13787095	     -0.00000000	     -1.36315934	      0.00000000	      0.00000000	      0.00000000	      0.00000000	      0.00000000	      0.00000000	      0.00000000	      0.00000000	      0.00000000	      0.00000000	      0.00000000	      0.00000000	      0.00000000	      0.00000000	      0.00000000	      0.00000000	      0.00000000	      0.00000000	      0.00000000	      0.00000000	      0.00000000	      0.00000000	      0.00000000	      0.00000000	      0.00000000	      0.00000000	      0.00000000	      0.00000000	      0.00000000	      0.00000000	      0.00000000	      0.00000000	      0.00000000	      0.00000000	      0.00000000	      0.00000000	      0.00000000
      0.30000000	    -67.25043797	   1079.25215029	     -9.98145196	     -0.70539091	      0.00000000	      0.13919946	     -0.00000000	      0.10799265	      0.00000000	      0.00000000	      0.00000000	      0.00000000	      0.00000000	      0.00000000	      0.00000000	      0.00000000	      0.00000000	      0.00000000	      0.00000000	      0.00000000	      0.00000000	      0.00000000	      0.00000000	      0.00000000	      0.00000000	      0.00000000	      0.00000000	      0.00000000	      0.00000000	      0.00000000	      0.00000000	      0.00000000	      0.00000000	      0.00000000	      0.00000000	      0.00000000	      0.00000000	      0.00000000	      0.00000000	      0.00000000	      0.00000000	      0.00000000	      0.00000000	      0.00000000	      0.00000000
      0.31000000	    -42.11165669	   1117.65243042	    -10.05365462	     -0.70214139	      0.00000000	      0.14031725	     -0.00000000	      1.76075446	      0.00000000	      0.00000000	      0.00000000	      0.00000000	      0.00000000	      0.00000000	      0.00000000	      0.00000000	      0.00000000	      0.00000000	      0.00000000	      0.00000000	      0.00000000	      0.00000000	      0.00000000	      0.00000000	      0.00000000	      0.00000000	      0.00000000	      0.00000000	      0.00000000	      0.00000000	      0.00000000	      0.00000000	      0.00000000	      0.00000000	      0.00000000	      0.00000000	      0.00000000	      0.00000000	      0.00000000	      0.00000000	      0.00000000	      0.00000000	      0.00000000	      0.00000000	      0.00000000
